<svg width="155" height="72" viewBox="0 0 155 72" fill="none" xmlns="http://www.w3.org/2000/svg">
<path d="M70.744 17.664C77.528 17.664 82.84 19.712 86.68 23.808C90.584 27.904 92.536 33.504 92.536 40.608V72H73.72V43.104C73.72 40.224 72.92 37.984 71.32 36.384C69.72 34.784 67.544 33.984 64.792 33.984C62.04 33.984 59.864 34.784 58.264 36.384C56.664 37.984 55.864 40.224 55.864 43.104V72H37.048V43.104C37.048 40.224 36.248 37.984 34.648 36.384C33.112 34.784 30.968 33.984 28.216 33.984C25.4 33.984 23.192 34.784 21.592 36.384C19.992 37.984 19.192 40.224 19.192 43.104V72H0.376V18.144H19.192V25.248C20.856 22.944 23 21.12 25.624 19.776C28.312 18.368 31.384 17.664 34.84 17.664C38.808 17.664 42.328 18.528 45.4 20.256C48.536 21.984 51 24.416 52.792 27.552C54.712 24.608 57.24 22.24 60.376 20.448C63.512 18.592 66.968 17.664 70.744 17.664Z" fill="black"/>
<path d="M134.429 17.664C140.573 17.664 145.437 19.744 149.021 23.904C152.669 28 154.493 33.568 154.493 40.608V72H135.677V43.104C135.677 40.032 134.877 37.632 133.277 35.904C131.677 34.112 129.533 33.216 126.845 33.216C124.029 33.216 121.821 34.112 120.221 35.904C118.621 37.632 117.821 40.032 117.821 43.104V72H99.0048V0.959999H117.821V25.824C119.485 23.392 121.725 21.44 124.541 19.968C127.421 18.432 130.717 17.664 134.429 17.664Z" fill="#4C18C4"/>
</svg>
