<svg width="565" height="80" viewBox="0 0 565 80" fill="none" xmlns="http://www.w3.org/2000/svg">
<path d="M70.744 24.664C77.528 24.664 82.84 26.712 86.68 30.808C90.584 34.904 92.536 40.504 92.536 47.608V79H73.72V50.104C73.72 47.224 72.92 44.984 71.32 43.384C69.72 41.784 67.544 40.984 64.792 40.984C62.04 40.984 59.864 41.784 58.264 43.384C56.664 44.984 55.864 47.224 55.864 50.104V79H37.048V50.104C37.048 47.224 36.248 44.984 34.648 43.384C33.112 41.784 30.968 40.984 28.216 40.984C25.4 40.984 23.192 41.784 21.592 43.384C19.992 44.984 19.192 47.224 19.192 50.104V79H0.376V25.144H19.192V32.248C20.856 29.944 23 28.12 25.624 26.776C28.312 25.368 31.384 24.664 34.84 24.664C38.808 24.664 42.328 25.528 45.4 27.256C48.536 28.984 51 31.416 52.792 34.552C54.712 31.608 57.24 29.24 60.376 27.448C63.512 25.592 66.968 24.664 70.744 24.664ZM124.061 79.672C118.685 79.672 113.853 78.552 109.565 76.312C105.341 74.072 102.013 70.872 99.5808 66.712C97.1488 62.552 95.9328 57.656 95.9328 52.024C95.9328 46.456 97.1488 41.592 99.5808 37.432C102.077 33.272 105.437 30.072 109.661 27.832C113.949 25.592 118.781 24.472 124.157 24.472C129.533 24.472 134.333 25.592 138.557 27.832C142.845 30.072 146.205 33.272 148.637 37.432C151.133 41.592 152.381 46.456 152.381 52.024C152.381 57.592 151.133 62.488 148.637 66.712C146.205 70.872 142.845 74.072 138.557 76.312C134.269 78.552 129.437 79.672 124.061 79.672ZM124.061 63.352C126.685 63.352 128.861 62.392 130.589 60.472C132.381 58.488 133.277 55.672 133.277 52.024C133.277 48.376 132.381 45.592 130.589 43.672C128.861 41.752 126.717 40.792 124.157 40.792C121.597 40.792 119.453 41.752 117.725 43.672C115.997 45.592 115.133 48.376 115.133 52.024C115.133 55.736 115.965 58.552 117.629 60.472C119.293 62.392 121.437 63.352 124.061 63.352ZM182.02 61.24L192.1 25.144H212.164L193.636 79H170.212L151.684 25.144H171.748L182.02 61.24ZM224.204 20.152C220.876 20.152 218.188 19.256 216.14 17.464C214.156 15.608 213.164 13.304 213.164 10.552C213.164 7.736 214.156 5.4 216.14 3.544C218.188 1.688 220.876 0.759995 224.204 0.759995C227.468 0.759995 230.092 1.688 232.076 3.544C234.124 5.4 235.148 7.736 235.148 10.552C235.148 13.304 234.124 15.608 232.076 17.464C230.092 19.256 227.468 20.152 224.204 20.152ZM233.516 25.144V79H214.7V25.144H233.516ZM291.847 51.448C291.847 52.92 291.751 54.392 291.559 55.864H255.943C256.135 58.808 256.935 61.016 258.343 62.488C259.815 63.896 261.671 64.6 263.911 64.6C267.047 64.6 269.287 63.192 270.631 60.376H290.695C289.863 64.088 288.231 67.416 285.799 70.36C283.431 73.24 280.423 75.512 276.775 77.176C273.127 78.84 269.095 79.672 264.679 79.672C259.367 79.672 254.631 78.552 250.471 76.312C246.375 74.072 243.143 70.872 240.775 66.712C238.471 62.552 237.319 57.656 237.319 52.024C237.319 46.392 238.471 41.528 240.775 37.432C243.079 33.272 246.279 30.072 250.375 27.832C254.535 25.592 259.303 24.472 264.679 24.472C269.991 24.472 274.695 25.56 278.791 27.736C282.887 29.912 286.087 33.048 288.391 37.144C290.695 41.176 291.847 45.944 291.847 51.448ZM272.647 46.744C272.647 44.44 271.879 42.648 270.343 41.368C268.807 40.024 266.887 39.352 264.583 39.352C262.279 39.352 260.391 39.992 258.919 41.272C257.447 42.488 256.487 44.312 256.039 46.744H272.647Z" fill="black"/>
<path d="M331.131 24.664C337.275 24.664 342.139 26.744 345.723 30.904C349.371 35 351.195 40.568 351.195 47.608V79H332.379V50.104C332.379 47.032 331.579 44.632 329.979 42.904C328.379 41.112 326.235 40.216 323.547 40.216C320.731 40.216 318.523 41.112 316.923 42.904C315.323 44.632 314.523 47.032 314.523 50.104V79H295.707V7.96H314.523V32.824C316.187 30.392 318.427 28.44 321.243 26.968C324.123 25.432 327.419 24.664 331.131 24.664ZM382.736 79.672C377.36 79.672 372.528 78.552 368.24 76.312C364.016 74.072 360.688 70.872 358.256 66.712C355.824 62.552 354.608 57.656 354.608 52.024C354.608 46.456 355.824 41.592 358.256 37.432C360.752 33.272 364.112 30.072 368.336 27.832C372.624 25.592 377.456 24.472 382.832 24.472C388.208 24.472 393.008 25.592 397.232 27.832C401.52 30.072 404.88 33.272 407.312 37.432C409.808 41.592 411.056 46.456 411.056 52.024C411.056 57.592 409.808 62.488 407.312 66.712C404.88 70.872 401.52 74.072 397.232 76.312C392.944 78.552 388.112 79.672 382.736 79.672ZM382.736 63.352C385.36 63.352 387.536 62.392 389.264 60.472C391.056 58.488 391.952 55.672 391.952 52.024C391.952 48.376 391.056 45.592 389.264 43.672C387.536 41.752 385.392 40.792 382.832 40.792C380.272 40.792 378.128 41.752 376.4 43.672C374.672 45.592 373.808 48.376 373.808 52.024C373.808 55.736 374.64 58.552 376.304 60.472C377.968 62.392 380.112 63.352 382.736 63.352ZM485.239 24.664C492.023 24.664 497.335 26.712 501.175 30.808C505.079 34.904 507.031 40.504 507.031 47.608V79H488.215V50.104C488.215 47.224 487.415 44.984 485.815 43.384C484.215 41.784 482.039 40.984 479.287 40.984C476.535 40.984 474.359 41.784 472.759 43.384C471.159 44.984 470.359 47.224 470.359 50.104V79H451.543V50.104C451.543 47.224 450.743 44.984 449.143 43.384C447.607 41.784 445.463 40.984 442.711 40.984C439.895 40.984 437.687 41.784 436.087 43.384C434.487 44.984 433.687 47.224 433.687 50.104V79H414.871V25.144H433.687V32.248C435.351 29.944 437.495 28.12 440.119 26.776C442.807 25.368 445.879 24.664 449.335 24.664C453.303 24.664 456.823 25.528 459.895 27.256C463.031 28.984 465.495 31.416 467.287 34.552C469.207 31.608 471.735 29.24 474.871 27.448C478.007 25.592 481.463 24.664 485.239 24.664ZM564.956 51.448C564.956 52.92 564.86 54.392 564.668 55.864H529.052C529.244 58.808 530.044 61.016 531.452 62.488C532.924 63.896 534.78 64.6 537.02 64.6C540.156 64.6 542.396 63.192 543.74 60.376H563.804C562.972 64.088 561.34 67.416 558.908 70.36C556.54 73.24 553.532 75.512 549.884 77.176C546.236 78.84 542.204 79.672 537.788 79.672C532.476 79.672 527.74 78.552 523.58 76.312C519.484 74.072 516.252 70.872 513.884 66.712C511.58 62.552 510.428 57.656 510.428 52.024C510.428 46.392 511.58 41.528 513.884 37.432C516.188 33.272 519.388 30.072 523.484 27.832C527.644 25.592 532.412 24.472 537.788 24.472C543.1 24.472 547.804 25.56 551.9 27.736C555.996 29.912 559.196 33.048 561.5 37.144C563.804 41.176 564.956 45.944 564.956 51.448ZM545.756 46.744C545.756 44.44 544.988 42.648 543.452 41.368C541.916 40.024 539.996 39.352 537.692 39.352C535.388 39.352 533.5 39.992 532.028 41.272C530.556 42.488 529.596 44.312 529.148 46.744H545.756Z" fill="#4C18C4"/>
</svg>
